<?xml version="1.0" encoding="UTF-8"?><svg id="Layer_1" xmlns="http://www.w3.org/2000/svg" xmlns:xlink="http://www.w3.org/1999/xlink" viewBox="0 0 1920 900"><defs><style>.cls-1{fill:none;}.cls-2{clip-path:url(#clippath-1);}.cls-3{clip-path:url(#clippath-3);}.cls-4{clip-path:url(#clippath-4);}.cls-5{clip-path:url(#clippath-2);}.cls-6{clip-path:url(#clippath-5);}.cls-7{fill:#4e5253;}.cls-8{clip-path:url(#clippath);}</style><clipPath id="clippath"><rect class="cls-1" x="1346.49" y="407.13" width="898.33" height="85.85" transform="translate(1345.6042 2245.7046) rotate(-90)"/></clipPath><clipPath id="clippath-1"><rect class="cls-1" x="1477.63" y="552.82" width="643.21" height="58.11" transform="translate(1217.3569 2381.1043) rotate(-90)"/></clipPath><clipPath id="clippath-2"><rect class="cls-1" x="1477.66" y="-90.56" width="643.21" height="58.11" transform="translate(1737.7603 -1860.7782) rotate(90)"/></clipPath><clipPath id="clippath-3"><rect class="cls-1" x="-331.68" y="406.27" width="898.33" height="85.85" transform="translate(-331.7 566.68) rotate(-90)"/></clipPath><clipPath id="clippath-4"><rect class="cls-1" x="-207.69" y="551.96" width="643.21" height="58.11" transform="translate(-467.1 694.93) rotate(-90)"/></clipPath><clipPath id="clippath-5"><rect class="cls-1" x="-207.73" y="-91.42" width="643.21" height="58.11" transform="translate(51.5 -176.24) rotate(90)"/></clipPath></defs><path class="cls-7" d="M1665.96,4.09h10.5v12.7l32.79,22.21-32.79,18.94v26.91l32.57,22.29-32.57,22.29v26.91l32.79,18.94-32.79,22.21v26.94l32.79,18.91-32.79,22.24v26.88l32.61,18.83-.13.13.22.15-.8.57-31.89,18.42v26.91l32.79,22.21-32.79,18.91v26.94l31.93,21.63,1.98.94-2.06.89-31.85,21.58v26.94l32.79,18.91-32.79,22.21v26.91l32.79,18.94-.31.21.04.04-.63.51-31.89,18.42v26.88l32.79,22.24-32.79,18.91v26.94l32.79,22.21-32.79,18.94v26.91l32.57,22.29-32.57,22.29v26.91l32.79,18.94-32.79,22.21v12.7h-10.5V4.09ZM1675.16,5.39h-7.91v885.4h7.91v-12.1l31.64-21.44-31.64-18.28v-28.34l31.57-21.6-31.57-21.6v-28.34l.32-.19,31.32-18.09-31.64-21.44v-28.37l31.64-18.25-31.64-21.47v-28.31l.32-.19,31.38-18.12-31.7-18.31v-28.34l31.64-21.44-31.64-18.25v-28.38l32.2-21.81-.18-.09.08-.03-32.11-21.75v-28.37l31.64-18.25-31.64-21.44v-28.34l31.7-18.31-31.7-18.31v-28.31l31.64-21.47-31.64-18.25v-28.37l31.64-21.44-31.64-18.28v-28.34l31.57-21.6-31.57-21.6v-28.34l31.64-18.28-31.64-21.44V5.39Z"/><path class="cls-7" d="M1692.83,4.09h31.21l23.43,15.89V4.09h13.01v887.99s-13,0-13,0v-15.89l-23.43,15.89h-31.21l51.38-34.83-54.24-31.32,54.16-36.9-54.16-36.93,54.24-31.29-54.24-36.77,54.24-31.29-54.24-36.77,54.29-31.33-54.29-31.33,54.24-36.77-54.24-31.3,53.63-36.36h-.41l1.49-.81-1.5-.81h.42l-53.63-36.36,54.24-31.3-54.24-36.77,54.29-31.33-54.29-31.33,54.24-36.77-54.24-31.3,54.24-36.77-54.24-31.29,54.16-36.93-54.16-36.9,54.24-31.32-51.38-34.83ZM1723.64,5.39h-26.6l49.6,33.62-54.24,31.33,54.02,36.81-54.02,36.84,54.24,31.3-54.24,36.77,54.24,31.3-54.24,36.77,54.06,31.19-.13.13.22.15-.81.58-53.34,30.78,54.24,36.77-54.24,31.3,53.33,36.15,1.08.45h2.31l-1.15.48,1.15.48h-2.3l-1.08.45-53.33,36.15,54.24,31.3-54.24,36.77,54.24,31.3-.31.21.04.04-.63.51-53.34,30.78,54.24,36.77-54.24,31.29,54.24,36.77-54.24,31.3,54.02,36.84-54.02,36.81,54.24,31.33-49.6,33.62h26.6l25.12-17.03v17.03h10.42v-442.87s0-442.53,0-442.53h-10.42v17.03l-25.12-17.03ZM1748.77,52.54v37.96l-30.25-20.51,30.25-17.46ZM1747.48,88.06v-33.28l-26.52,15.31,26.52,17.98ZM1748.77,123.81v37.96l-30.25-17.46,30.25-20.5ZM1747.48,159.53v-33.28l-26.52,17.98,26.52,15.31ZM1748.77,191.87v37.96l-30.25-17.46,30.25-20.5ZM1747.48,227.6v-33.28l-26.52,17.98,26.52,15.31ZM1748.77,259.94v37.96l-30.25-17.46,30.25-20.5ZM1747.48,295.66v-33.28l-26.52,17.98,26.52,15.31ZM1748.77,325.16v37.96l-30.25-20.51,30.25-17.46ZM1747.48,360.68v-33.28l-26.52,15.3,26.52,17.98ZM1748.77,393.22v37.96l-30.25-20.5,30.25-17.46ZM1747.48,428.75v-33.28l-26.52,15.31,26.52,17.97ZM1748.78,464.99v37.96l-30.25-17.46,30.25-20.5ZM1747.49,500.71v-33.28l-26.52,17.98,26.52,15.31ZM1748.78,533.05v37.96l-30.25-17.46,30.25-20.51ZM1747.49,568.78v-33.28l-26.52,17.98,26.52,15.3ZM1748.78,598.27v37.96l-30.25-20.5,30.25-17.46ZM1747.49,633.79v-33.28l-26.52,15.31,26.52,17.98ZM1748.78,666.34v37.96l-30.25-20.5,30.25-17.46ZM1747.49,701.86v-33.28l-26.52,15.31,26.52,17.98ZM1748.78,734.4v37.96l-30.25-20.5,30.25-17.46ZM1747.49,769.93v-33.28l-26.52,15.31,26.52,17.98ZM1748.78,805.67v37.96l-30.25-17.46,30.25-20.51ZM1747.49,841.4v-33.28l-26.52,17.98,26.52,15.31Z"/><g class="cls-8"><g class="cls-2"><polygon class="cls-7" points="1806.09 720.32 1806.09 703.49 1792.69 712.58 1806.09 720.32"/><polygon class="cls-7" points="1806.09 654.23 1806.09 637.41 1792.68 645.15 1806.09 654.23"/><polygon class="cls-7" points="1806.09 686.38 1806.09 669.55 1792.68 677.29 1806.09 686.38"/><polygon class="cls-7" points="1806.09 752.46 1806.09 735.64 1792.69 744.72 1806.09 752.46"/><polygon class="cls-7" points="1806.09 881.21 1806.09 864.38 1792.69 873.47 1806.09 881.21"/><polygon class="cls-7" points="1806.09 815.36 1806.09 798.53 1792.69 806.27 1806.09 815.36"/><polygon class="cls-7" points="1806.09 847.5 1806.09 830.68 1792.69 838.42 1806.09 847.5"/><polygon class="cls-7" points="1806.09 783.21 1806.09 766.39 1792.69 774.13 1806.09 783.21"/><polygon class="cls-7" points="1806.09 525.49 1806.09 508.66 1792.68 516.4 1806.09 525.49"/><polygon class="cls-7" points="1796.92 903.62 1806.09 903.62 1806.09 897.4 1796.92 903.62"/><polygon class="cls-7" points="1806.09 591.34 1806.09 574.51 1792.68 583.6 1806.09 591.34"/><polygon class="cls-7" points="1806.09 623.48 1806.09 606.66 1792.68 615.74 1806.09 623.48"/><polygon class="cls-7" points="1806.09 559.19 1806.09 542.37 1792.68 551.46 1806.09 559.19"/><polygon class="cls-7" points="1806.09 303.61 1806.09 286.78 1792.69 295.87 1806.09 303.61"/><polygon class="cls-7" points="1806.09 237.52 1806.09 220.7 1792.68 228.44 1806.09 237.52"/><polygon class="cls-7" points="1806.09 269.67 1806.09 252.85 1792.68 260.58 1806.09 269.67"/><polygon class="cls-7" points="1806.09 335.75 1806.09 318.93 1792.69 328.01 1806.09 335.75"/><polygon class="cls-7" points="1806.09 464.5 1806.09 447.67 1792.69 456.76 1806.09 464.5"/><polygon class="cls-7" points="1806.09 398.65 1806.09 381.82 1792.69 389.56 1806.09 398.65"/><polygon class="cls-7" points="1806.09 430.79 1806.09 413.97 1792.69 421.71 1806.09 430.79"/><polygon class="cls-7" points="1806.09 366.5 1806.09 349.68 1792.69 357.42 1806.09 366.5"/><polygon class="cls-7" points="1806.09 108.78 1806.09 91.96 1792.68 99.69 1806.09 108.78"/><polygon class="cls-7" points="1806.08 486.59 1806.08 485.97 1806.08 485.97 1806.05 478.51 1795.22 485.97 1806.08 493.34 1806.08 486.91 1806.09 486.91 1806.08 486.59"/><polygon class="cls-7" points="1806.08 69.26 1795.22 69.26 1806.08 76.63 1806.08 69.26"/><polygon class="cls-7" points="1771.94 74.71 1787.15 85.02 1771.94 93.81 1771.94 106.85 1787.08 117.22 1771.94 127.58 1771.94 140.63 1787.15 149.42 1771.94 159.72 1771.94 172.79 1787.15 181.56 1771.94 191.88 1771.94 204.91 1787.15 213.7 1787.11 213.74 1787.15 213.77 1771.94 222.56 1771.94 235.61 1787.15 245.91 1771.94 254.69 1771.94 267.75 1787.15 278.06 1787.34 278.15 1787.5 278.22 1787.5 278.23 1787.5 278.23 1787.34 278.3 1787.15 278.4 1771.94 288.7 1771.94 301.76 1787.15 310.54 1771.94 320.84 1771.94 333.89 1787.15 342.68 1787.11 342.71 1787.15 342.75 1771.94 351.54 1771.94 364.57 1787.15 374.89 1771.94 383.67 1771.94 396.73 1787.15 407.03 1771.94 415.82 1771.94 428.87 1787.08 439.23 1771.94 449.6 1771.94 462.64 1787.15 471.43 1771.94 481.74 1771.94 485.97 1771.94 485.97 1771.94 491.42 1787.15 501.73 1771.94 510.52 1771.94 523.56 1787.08 533.93 1771.94 544.29 1771.94 557.34 1787.15 566.13 1771.94 576.43 1771.94 589.49 1787.15 598.27 1771.94 608.59 1771.94 621.62 1787.15 630.41 1787.11 630.45 1787.15 630.48 1771.94 639.27 1771.94 652.32 1787.15 662.62 1771.94 671.4 1771.94 684.46 1787.15 694.77 1787.34 694.86 1787.5 694.93 1787.5 694.93 1787.5 694.94 1787.34 695.01 1787.15 695.1 1771.94 705.41 1771.94 718.47 1787.15 727.25 1771.94 737.55 1771.94 750.6 1787.15 759.39 1787.11 759.42 1787.15 759.46 1771.94 768.25 1771.94 781.28 1787.15 791.6 1771.94 800.38 1771.94 813.44 1787.15 823.74 1771.94 832.53 1771.94 845.58 1787.08 855.94 1771.94 866.31 1771.94 879.35 1787.15 888.14 1771.94 898.45 1771.94 902.75 1783.27 902.75 1804.81 888.14 1779.2 873.35 1804.74 855.94 1779.2 838.52 1804.81 823.74 1779.2 806.38 1804.81 791.6 1779.2 774.24 1804.81 759.46 1804.77 759.42 1804.81 759.39 1779.2 744.61 1804.81 727.25 1779.2 712.47 1804.81 695.1 1805.03 695.01 1804.96 695.01 1805.1 694.93 1804.96 694.86 1805.03 694.86 1804.81 694.77 1779.2 677.4 1804.81 662.62 1779.2 645.26 1804.81 630.48 1804.77 630.45 1804.81 630.41 1779.2 615.63 1804.81 598.27 1779.2 583.49 1804.81 566.13 1779.2 551.35 1804.74 533.93 1779.2 516.52 1804.81 501.73 1782.86 486.85 1782.93 486.85 1804.81 471.43 1779.2 456.64 1804.74 439.23 1779.2 421.81 1804.81 407.03 1779.2 389.67 1804.81 374.89 1779.2 357.53 1804.81 342.75 1804.77 342.71 1804.81 342.68 1779.2 327.9 1804.81 310.54 1779.2 295.76 1804.81 278.4 1805.03 278.3 1804.96 278.3 1805.1 278.23 1804.96 278.15 1805.03 278.15 1804.81 278.06 1779.2 260.69 1804.81 245.91 1779.2 228.55 1804.81 213.77 1804.77 213.74 1804.81 213.7 1779.2 198.92 1804.81 181.56 1779.2 166.78 1804.81 149.42 1779.2 134.64 1804.74 117.22 1779.2 99.81 1804.81 85.02 1781.57 69.26 1771.94 69.26 1771.94 74.71"/><polygon class="cls-7" points="1806.09 174.63 1806.09 157.8 1792.68 166.89 1806.09 174.63"/><polygon class="cls-7" points="1806.09 206.77 1806.09 189.95 1792.68 199.04 1806.09 206.77"/><polygon class="cls-7" points="1806.09 142.48 1806.09 125.66 1792.68 134.75 1806.09 142.48"/><polygon class="cls-7" points="1811.62 485.97 1811.62 487.6 1811.62 487.64 1811.62 694.86 1811.62 904.31 1811.62 904.35 1821.87 904.35 1821.87 487.64 1821.87 485.97 1821.87 69.26 1811.62 69.26 1811.62 278.15 1811.62 485.97"/></g><g class="cls-5"><polygon class="cls-7" points="1806.13 -5.12 1806.13 11.7 1792.72 3.96 1806.13 -5.12"/><polygon class="cls-7" points="1806.13 216.76 1806.13 233.58 1792.72 224.5 1806.13 216.76"/><polygon class="cls-7" points="1806.13 282.84 1806.13 299.66 1792.72 291.93 1806.13 282.84"/><polygon class="cls-7" points="1806.13 250.7 1806.13 267.52 1792.72 259.78 1806.13 250.7"/><polygon class="cls-7" points="1806.13 184.61 1806.13 201.44 1792.72 192.35 1806.13 184.61"/><polygon class="cls-7" points="1806.13 55.87 1806.13 72.69 1792.72 63.61 1806.13 55.87"/><polygon class="cls-7" points="1806.13 121.72 1806.13 138.54 1792.72 130.8 1806.13 121.72"/><polygon class="cls-7" points="1806.13 89.57 1806.13 106.4 1792.72 98.66 1806.13 89.57"/><polygon class="cls-7" points="1806.13 153.86 1806.13 170.69 1792.72 162.95 1806.13 153.86"/><polygon class="cls-7" points="1806.13 411.59 1806.13 428.41 1792.72 420.67 1806.13 411.59"/><polygon class="cls-7" points="1806.12 33.77 1806.12 34.39 1806.12 34.39 1806.08 41.85 1795.26 34.39 1806.12 27.03 1806.12 33.46 1806.12 33.46 1806.12 33.77"/><polygon class="cls-7" points="1806.12 451.1 1795.26 451.1 1806.12 443.74 1806.12 451.1"/><polygon class="cls-7" points="1771.98 445.65 1787.19 435.35 1771.98 426.56 1771.98 413.51 1787.12 403.15 1771.98 392.78 1771.98 379.74 1787.19 370.95 1771.98 360.64 1771.98 347.58 1787.19 338.81 1771.98 328.48 1771.98 315.45 1787.19 306.66 1787.15 306.62 1787.19 306.59 1771.98 297.8 1771.98 284.76 1787.19 274.45 1771.98 265.68 1771.98 252.62 1787.19 242.31 1787.38 242.22 1787.54 242.14 1787.53 242.14 1787.54 242.14 1787.38 242.06 1787.19 241.97 1771.98 231.66 1771.98 218.6 1787.19 209.83 1771.98 199.52 1771.98 186.47 1787.19 177.69 1787.15 177.66 1787.19 177.61 1771.98 168.83 1771.98 155.79 1787.19 145.47 1771.98 136.7 1771.98 123.64 1787.19 113.33 1771.98 104.54 1771.98 91.49 1787.12 81.13 1771.98 70.77 1771.98 57.72 1787.19 48.93 1771.98 38.62 1771.98 34.39 1771.98 34.39 1771.98 28.94 1787.19 18.64 1771.98 9.85 1771.98 -3.2 1787.12 -13.56 1771.98 -23.93 1771.98 -36.97 1787.19 -45.76 1771.98 -56.07 1771.98 -69.13 1787.19 -77.9 1771.98 -88.22 1771.98 -101.26 1787.19 -110.05 1787.15 -110.09 1787.19 -110.12 1771.98 -118.9 1771.98 -131.95 1787.19 -142.26 1771.98 -151.03 1771.98 -164.09 1787.19 -174.4 1787.38 -174.49 1787.54 -174.57 1787.53 -174.57 1787.54 -174.57 1787.38 -174.65 1787.19 -174.74 1771.98 -185.05 1771.98 -198.11 1787.19 -206.88 1771.98 -217.19 1771.98 -230.24 1787.19 -239.02 1787.15 -239.05 1787.19 -239.09 1771.98 -247.88 1771.98 -260.92 1787.19 -271.24 1771.98 -280.01 1771.98 -293.07 1787.19 -303.38 1771.98 -312.17 1771.98 -325.21 1787.12 -335.58 1771.98 -345.94 1771.98 -358.99 1787.19 -367.78 1771.98 -378.08 1771.98 -382.38 1783.31 -382.38 1804.85 -367.78 1779.24 -352.98 1804.78 -335.58 1779.24 -318.16 1804.85 -303.38 1779.24 -286.02 1804.85 -271.24 1779.24 -253.87 1804.85 -239.09 1804.81 -239.05 1804.85 -239.02 1779.24 -224.24 1804.85 -206.88 1779.24 -192.1 1804.85 -174.74 1805.07 -174.65 1804.99 -174.65 1805.14 -174.57 1805 -174.49 1805.07 -174.49 1804.85 -174.4 1779.24 -157.04 1804.85 -142.26 1779.24 -124.9 1804.85 -110.12 1804.81 -110.09 1804.85 -110.05 1779.24 -95.27 1804.85 -77.9 1779.24 -63.12 1804.85 -45.76 1779.24 -30.98 1804.78 -13.56 1779.24 3.84 1804.85 18.64 1782.9 33.52 1782.97 33.51 1804.85 48.93 1779.24 63.73 1804.78 81.13 1779.24 98.55 1804.85 113.33 1779.24 130.69 1804.85 145.47 1779.24 162.84 1804.85 177.61 1804.81 177.66 1804.85 177.69 1779.24 192.46 1804.85 209.83 1779.24 224.61 1804.85 241.97 1805.07 242.06 1804.99 242.06 1805.14 242.14 1805 242.22 1805.07 242.22 1804.85 242.31 1779.24 259.67 1804.85 274.45 1779.24 291.81 1804.85 306.59 1804.81 306.62 1804.85 306.66 1779.24 321.44 1804.85 338.81 1779.24 353.59 1804.85 370.95 1779.24 385.73 1804.78 403.15 1779.24 420.55 1804.85 435.35 1781.61 451.1 1771.98 451.1 1771.98 445.65"/><polygon class="cls-7" points="1806.13 345.74 1806.13 362.56 1792.72 353.47 1806.13 345.74"/><polygon class="cls-7" points="1806.13 313.59 1806.13 330.42 1792.72 321.33 1806.13 313.59"/><polygon class="cls-7" points="1806.13 377.88 1806.13 394.7 1792.72 385.62 1806.13 377.88"/><polygon class="cls-7" points="1811.65 34.39 1811.65 32.77 1811.65 32.72 1811.65 -174.49 1811.65 -383.94 1811.65 -383.99 1821.91 -383.99 1821.91 32.72 1821.91 34.39 1821.91 451.1 1811.65 451.1 1811.65 242.22 1811.65 34.39"/></g></g><path class="cls-7" d="M247.18,891.22h-10.5v-12.7s-32.79-22.21-32.79-22.21l32.79-18.94v-26.91s-32.57-22.29-32.57-22.29l32.57-22.29v-26.91s-32.79-18.94-32.79-18.94l32.79-22.21v-26.94s-32.79-18.91-32.79-18.91l32.79-22.24v-26.88s-31.89-18.42-31.89-18.42l-.63-.51.04-.04-.31-.21,32.79-18.94v-26.91s-32.79-22.21-32.79-22.21l32.79-18.91v-26.94s-31.85-21.58-31.85-21.58l-2.06-.89,1.98-.94,31.93-21.63v-26.94s-32.79-18.91-32.79-18.91l32.79-22.21v-26.91s-31.89-18.42-31.89-18.42l-.8-.57.22-.15-.13-.13,32.61-18.83v-26.88s-32.79-22.24-32.79-22.24l32.79-18.91v-26.94s-32.79-22.21-32.79-22.21l32.79-18.94v-26.91s-32.57-22.29-32.57-22.29l32.57-22.29v-26.91s-32.79-18.94-32.79-18.94l32.79-22.21V3.23h10.5v887.99ZM237.98,16.63l-31.64,21.44,31.64,18.28v28.34s-31.57,21.6-31.57,21.6l31.57,21.6v28.34s-31.64,18.28-31.64,18.28l31.64,21.44v28.37s-31.64,18.25-31.64,18.25l31.64,21.47v28.31s-31.7,18.31-31.7,18.31l31.7,18.31v28.34s-31.64,21.44-31.64,21.44l31.64,18.25v28.37s-32.11,21.75-32.11,21.75l.08.03-.18.09,32.2,21.81v28.38s-31.64,18.25-31.64,18.25l31.64,21.44v28.34s-31.7,18.31-31.7,18.31l31.38,18.12.32.19v28.31s-31.64,21.47-31.64,21.47l31.64,18.25v28.37s-31.64,21.44-31.64,21.44l31.32,18.09.32.19v28.34s-31.57,21.6-31.57,21.6l31.57,21.6v28.34s-31.64,18.28-31.64,18.28l31.64,21.44v12.1s7.91,0,7.91,0V4.53s-7.91,0-7.91,0v12.1Z"/><path class="cls-7" d="M168.94,38.06l54.24,31.32-54.16,36.9,54.16,36.93-54.24,31.29,54.24,36.77-54.24,31.3,54.24,36.77-54.29,31.33,54.29,31.33-54.24,36.77,54.24,31.3-53.63,36.36h.42s-1.5.81-1.5.81l1.49.81h-.41s53.63,36.36,53.63,36.36l-54.24,31.3,54.24,36.77-54.29,31.33,54.29,31.33-54.24,36.77,54.24,31.29-54.24,36.77,54.24,31.29-54.16,36.93,54.16,36.9-54.24,31.32,51.38,34.83h-31.21s-23.43-15.89-23.43-15.89v15.89h-13.01V3.23h13.01v15.89s23.43-15.89,23.43-15.89h31.21s-51.38,34.83-51.38,34.83ZM164.38,21.56V4.53s-10.42,0-10.42,0v442.53s0,.65,0,.65v442.22s10.42,0,10.42,0v-17.03s25.12,17.03,25.12,17.03h26.6s-49.6-33.62-49.6-33.62l54.24-31.33-54.02-36.81,54.02-36.84-54.24-31.3,54.24-36.77-54.24-31.29,54.24-36.77-53.34-30.78-.63-.51.04-.04-.31-.21,54.24-31.3-54.24-36.77,54.24-31.3-53.33-36.15-1.08-.45h-2.3s1.15-.48,1.15-.48l-1.15-.48h2.31s1.08-.45,1.08-.45l53.33-36.15-54.24-31.3,54.24-36.77-53.34-30.78-.81-.58.22-.15-.13-.13,54.06-31.19-54.24-36.77,54.24-31.3-54.24-36.77,54.24-31.3-54.02-36.84,54.02-36.81-54.24-31.33L216.1,4.53h-26.6s-25.12,17.03-25.12,17.03ZM194.62,69.14l-30.25,20.51v-37.96s30.25,17.46,30.25,17.46ZM192.18,69.22l-26.52-15.31v33.28s26.52-17.98,26.52-17.98ZM194.62,143.45l-30.25,17.46v-37.96s30.25,20.5,30.25,20.5ZM192.18,143.36l-26.52-17.98v33.28s26.52-15.31,26.52-15.31ZM194.62,211.52l-30.25,17.46v-37.96s30.25,20.5,30.25,20.5ZM192.18,211.43l-26.52-17.98v33.28s26.52-15.31,26.52-15.31ZM194.62,279.58l-30.25,17.46v-37.96s30.25,20.5,30.25,20.5ZM192.18,279.5l-26.52-17.98v33.28s26.52-15.31,26.52-15.31ZM194.62,341.76l-30.25,20.51v-37.96s30.25,17.46,30.25,17.46ZM192.18,341.84l-26.52-15.3v33.28s26.52-17.98,26.52-17.98ZM194.62,409.82l-30.25,20.5v-37.96s30.25,17.46,30.25,17.46ZM192.18,409.91l-26.52-15.31v33.28s26.52-17.97,26.52-17.97ZM194.61,484.63l-30.25,17.46v-37.96s30.25,20.5,30.25,20.5ZM192.18,484.54l-26.52-17.98v33.28s26.52-15.31,26.52-15.31ZM194.61,552.7l-30.25,17.46v-37.96s30.25,20.51,30.25,20.51ZM192.18,552.61l-26.52-17.98v33.28s26.52-15.3,26.52-15.3ZM194.61,614.87l-30.25,20.5v-37.96s30.25,17.46,30.25,17.46ZM192.18,614.96l-26.52-15.31v33.28s26.52-17.98,26.52-17.98ZM194.61,682.94l-30.25,20.5v-37.96s30.25,17.46,30.25,17.46ZM192.18,683.03l-26.52-15.31v33.28s26.52-17.98,26.52-17.98ZM194.61,751l-30.25,20.5v-37.96s30.25,17.46,30.25,17.46ZM192.18,751.09l-26.52-15.31v33.28s26.52-17.98,26.52-17.98ZM194.61,825.32l-30.25,17.46v-37.96s30.25,20.51,30.25,20.51ZM192.18,825.23l-26.52-17.98v33.28s26.52-15.31,26.52-15.31Z"/><g class="cls-3"><g class="cls-4"><polygon class="cls-7" points="107.05 719.46 107.05 702.63 120.46 711.72 107.05 719.46"/><polygon class="cls-7" points="107.05 653.37 107.05 636.55 120.46 644.29 107.05 653.37"/><polygon class="cls-7" points="107.05 685.52 107.05 668.69 120.46 676.43 107.05 685.52"/><polygon class="cls-7" points="107.05 751.6 107.05 734.78 120.46 743.86 107.05 751.6"/><polygon class="cls-7" points="107.05 880.35 107.05 863.52 120.46 872.61 107.05 880.35"/><polygon class="cls-7" points="107.05 814.5 107.05 797.67 120.46 805.41 107.05 814.5"/><polygon class="cls-7" points="107.05 846.64 107.05 829.82 120.46 837.56 107.05 846.64"/><polygon class="cls-7" points="107.05 782.35 107.05 765.53 120.46 773.27 107.05 782.35"/><polygon class="cls-7" points="107.05 524.63 107.05 507.8 120.46 515.54 107.05 524.63"/><polygon class="cls-7" points="116.22 902.76 107.06 902.76 107.06 896.54 116.22 902.76"/><polygon class="cls-7" points="107.05 590.48 107.05 573.65 120.46 582.74 107.05 590.48"/><polygon class="cls-7" points="107.05 622.62 107.05 605.8 120.46 614.88 107.05 622.62"/><polygon class="cls-7" points="107.05 558.33 107.05 541.51 120.46 550.6 107.05 558.33"/><polygon class="cls-7" points="107.05 302.75 107.05 285.92 120.46 295.01 107.05 302.75"/><polygon class="cls-7" points="107.05 236.66 107.05 219.84 120.46 227.58 107.05 236.66"/><polygon class="cls-7" points="107.05 268.81 107.05 251.99 120.46 259.72 107.05 268.81"/><polygon class="cls-7" points="107.05 334.89 107.05 318.07 120.46 327.15 107.05 334.89"/><polygon class="cls-7" points="107.05 463.64 107.05 446.81 120.46 455.9 107.05 463.64"/><polygon class="cls-7" points="107.05 397.79 107.05 380.96 120.46 388.7 107.05 397.79"/><polygon class="cls-7" points="107.05 429.93 107.05 413.11 120.46 420.85 107.05 429.93"/><polygon class="cls-7" points="107.05 365.64 107.05 348.82 120.46 356.56 107.05 365.64"/><polygon class="cls-7" points="107.05 107.92 107.05 91.1 120.46 98.83 107.05 107.92"/><polygon class="cls-7" points="107.06 485.73 107.06 485.11 107.06 485.11 107.1 477.65 117.92 485.11 107.06 492.48 107.06 486.05 107.06 486.05 107.06 485.73"/><polygon class="cls-7" points="107.06 68.4 117.92 68.4 107.06 75.77 107.06 68.4"/><polygon class="cls-7" points="141.21 73.85 125.99 84.16 141.21 92.95 141.21 105.99 126.06 116.36 141.21 126.72 141.21 139.77 125.99 148.56 141.21 158.86 141.21 171.93 125.99 180.7 141.21 191.02 141.21 204.05 125.99 212.84 126.03 212.88 125.99 212.91 141.21 221.7 141.21 234.75 125.99 245.05 141.21 253.83 141.21 266.89 125.99 277.2 125.8 277.29 125.64 277.36 125.65 277.37 125.64 277.37 125.8 277.44 125.99 277.54 141.2 287.84 141.2 300.9 125.99 309.68 141.2 319.98 141.2 333.03 125.99 341.82 126.03 341.85 125.99 341.89 141.2 350.68 141.2 363.71 125.99 374.03 141.2 382.81 141.2 395.87 125.99 406.18 141.2 414.96 141.2 428.01 126.06 438.37 141.2 448.74 141.2 461.78 125.99 470.57 141.2 480.88 141.2 485.11 141.21 485.11 141.21 490.56 125.99 500.87 141.21 509.66 141.21 522.7 126.06 533.07 141.21 543.43 141.21 556.48 125.99 565.27 141.21 575.57 141.21 588.63 125.99 597.41 141.21 607.73 141.21 620.76 125.99 629.55 126.03 629.59 125.99 629.62 141.21 638.41 141.21 651.46 125.99 661.76 141.21 670.54 141.21 683.6 125.99 693.91 125.8 694 125.64 694.07 125.65 694.07 125.64 694.08 125.8 694.15 125.99 694.24 141.2 704.55 141.2 717.61 125.99 726.39 141.2 736.69 141.2 749.74 125.99 758.53 126.03 758.56 125.99 758.6 141.2 767.39 141.2 780.42 125.99 790.74 141.2 799.52 141.2 812.58 125.99 822.88 141.2 831.67 141.2 844.72 126.06 855.08 141.2 865.45 141.2 878.49 125.99 887.28 141.2 897.59 141.2 901.89 129.87 901.89 108.33 887.28 133.94 872.49 108.4 855.08 133.94 837.66 108.33 822.88 133.94 805.52 108.33 790.74 133.94 773.38 108.33 758.6 108.37 758.56 108.33 758.53 133.94 743.75 108.33 726.39 133.94 711.61 108.33 694.24 108.11 694.15 108.19 694.15 108.04 694.07 108.19 694 108.11 694 108.33 693.91 133.94 676.54 108.33 661.76 133.94 644.4 108.33 629.62 108.37 629.59 108.33 629.55 133.94 614.77 108.33 597.41 133.94 582.63 108.33 565.27 133.94 550.49 108.4 533.07 133.94 515.66 108.33 500.87 130.29 485.99 130.21 485.99 108.33 470.57 133.94 455.78 108.4 438.37 133.94 420.95 108.33 406.18 133.94 388.81 108.33 374.03 133.94 356.67 108.33 341.89 108.37 341.85 108.33 341.82 133.94 327.04 108.33 309.68 133.94 294.9 108.33 277.54 108.11 277.44 108.19 277.44 108.04 277.37 108.19 277.29 108.11 277.29 108.33 277.2 133.94 259.83 108.33 245.05 133.94 227.69 108.33 212.91 108.37 212.88 108.33 212.84 133.94 198.06 108.33 180.7 133.94 165.92 108.33 148.56 133.94 133.78 108.4 116.36 133.94 98.95 108.33 84.16 131.58 68.4 141.21 68.4 141.21 73.85"/><polygon class="cls-7" points="107.05 173.77 107.05 156.94 120.46 166.03 107.05 173.77"/><polygon class="cls-7" points="107.05 205.91 107.05 189.09 120.46 198.18 107.05 205.91"/><polygon class="cls-7" points="107.05 141.62 107.05 124.8 120.46 133.89 107.05 141.62"/><polygon class="cls-7" points="101.53 485.11 101.53 486.74 101.53 486.78 101.53 694 101.53 903.45 101.53 903.49 91.27 903.49 91.27 486.78 91.27 485.11 91.27 68.4 101.53 68.4 101.53 277.29 101.53 485.11"/></g><g class="cls-6"><polygon class="cls-7" points="107.01 -5.98 107.01 10.84 120.42 3.1 107.01 -5.98"/><polygon class="cls-7" points="107.01 215.9 107.01 232.72 120.42 223.64 107.01 215.9"/><polygon class="cls-7" points="107.01 281.98 107.01 298.8 120.42 291.07 107.01 281.98"/><polygon class="cls-7" points="107.01 249.84 107.01 266.66 120.42 258.92 107.01 249.84"/><polygon class="cls-7" points="107.01 183.75 107.01 200.58 120.42 191.49 107.01 183.75"/><polygon class="cls-7" points="107.01 55.01 107.01 71.83 120.42 62.75 107.01 55.01"/><polygon class="cls-7" points="107.01 120.86 107.01 137.68 120.42 129.94 107.01 120.86"/><polygon class="cls-7" points="107.01 88.71 107.01 105.54 120.42 97.8 107.01 88.71"/><polygon class="cls-7" points="107.01 153 107.01 169.83 120.42 162.09 107.01 153"/><polygon class="cls-7" points="107.01 410.73 107.01 427.55 120.42 419.81 107.01 410.73"/><polygon class="cls-7" points="107.02 32.91 107.02 33.53 107.02 33.53 107.06 40.99 117.89 33.53 107.02 26.17 107.02 32.6 107.02 32.6 107.02 32.91"/><polygon class="cls-7" points="107.02 450.24 117.89 450.24 107.02 442.88 107.02 450.24"/><polygon class="cls-7" points="141.17 444.79 125.95 434.49 141.17 425.7 141.17 412.65 126.02 402.29 141.17 391.92 141.17 378.88 125.95 370.09 141.17 359.78 141.17 346.72 125.95 337.95 141.17 327.62 141.17 314.59 125.95 305.8 126 305.76 125.95 305.73 141.17 296.94 141.17 283.9 125.95 273.59 141.17 264.82 141.17 251.76 125.95 241.45 125.77 241.36 125.61 241.28 125.61 241.28 125.6 241.28 125.76 241.2 125.95 241.11 141.17 230.8 141.17 217.74 125.95 208.97 141.17 198.66 141.17 185.61 125.95 176.83 125.99 176.8 125.95 176.75 141.17 167.97 141.17 154.93 125.95 144.61 141.17 135.84 141.17 122.78 125.95 112.47 141.17 103.68 141.17 90.63 126.02 80.27 141.17 69.91 141.17 56.86 125.95 48.07 141.17 37.77 141.17 33.53 141.17 33.53 141.17 28.08 125.95 17.78 141.17 8.99 141.17 -4.06 126.02 -14.42 141.17 -24.79 141.17 -37.83 125.95 -46.62 141.17 -56.93 141.17 -69.99 125.95 -78.76 141.17 -89.08 141.17 -102.12 125.95 -110.91 126 -110.95 125.95 -110.98 141.17 -119.76 141.17 -132.81 125.95 -143.12 141.17 -151.89 141.17 -164.95 125.95 -175.26 125.77 -175.35 125.61 -175.43 125.61 -175.43 125.6 -175.43 125.76 -175.51 125.95 -175.6 141.17 -185.91 141.17 -198.97 125.95 -207.74 141.17 -218.05 141.17 -231.1 125.95 -239.88 125.99 -239.91 125.95 -239.95 141.17 -248.74 141.17 -261.78 125.95 -272.1 141.17 -280.87 141.17 -293.93 125.95 -304.24 141.17 -313.03 141.17 -326.07 126.02 -336.44 141.17 -346.8 141.17 -359.85 125.95 -368.64 141.17 -378.94 141.17 -383.24 129.84 -383.24 108.29 -368.64 133.9 -353.84 108.36 -336.44 133.9 -319.02 108.29 -304.24 133.9 -286.88 108.29 -272.1 133.9 -254.73 108.29 -239.95 108.33 -239.91 108.29 -239.88 133.9 -225.1 108.29 -207.74 133.9 -192.96 108.29 -175.6 108.07 -175.51 108.15 -175.51 108 -175.43 108.15 -175.35 108.07 -175.35 108.29 -175.26 133.91 -157.9 108.29 -143.12 133.91 -125.76 108.29 -110.98 108.33 -110.95 108.29 -110.91 133.91 -96.13 108.29 -78.76 133.91 -63.98 108.29 -46.62 133.91 -31.84 108.36 -14.42 133.91 2.98 108.29 17.78 130.25 32.66 130.17 32.65 108.29 48.07 133.9 62.87 108.36 80.27 133.9 97.69 108.29 112.47 133.9 129.83 108.29 144.61 133.9 161.98 108.29 176.75 108.33 176.8 108.29 176.83 133.9 191.6 108.29 208.97 133.9 223.75 108.29 241.11 108.07 241.2 108.15 241.2 108 241.28 108.15 241.36 108.07 241.36 108.29 241.45 133.91 258.81 108.29 273.59 133.91 290.95 108.29 305.73 108.33 305.76 108.29 305.8 133.91 320.58 108.29 337.95 133.91 352.73 108.29 370.09 133.91 384.87 108.36 402.29 133.91 419.69 108.29 434.49 131.54 450.24 141.17 450.24 141.17 444.79"/><polygon class="cls-7" points="107.01 344.88 107.01 361.7 120.42 352.61 107.01 344.88"/><polygon class="cls-7" points="107.01 312.73 107.01 329.56 120.42 320.47 107.01 312.73"/><polygon class="cls-7" points="107.01 377.02 107.01 393.84 120.42 384.76 107.01 377.02"/><polygon class="cls-7" points="101.49 33.53 101.49 31.91 101.49 31.86 101.49 -175.35 101.49 -384.8 101.49 -384.85 91.23 -384.85 91.23 31.86 91.23 33.53 91.23 450.24 101.49 450.24 101.49 241.36 101.49 33.53"/></g></g></svg>