<?xml version="1.0" encoding="UTF-8"?><svg id="Layer_1" xmlns="http://www.w3.org/2000/svg" viewBox="0 0 74.78 74.1"><defs><style>.cls-1{fill:#fff;}</style></defs><path class="cls-1" d="M5.01,62.51c-.19,0-.35-.07-.48-.2-.13-.13-.2-.29-.2-.47s.07-.35.2-.48.29-.2.48-.2h4.33c.18,0,.34.07.47.2s.2.29.2.48c0,1.38-.49,2.56-1.47,3.53-.98.98-2.15,1.47-3.53,1.47s-2.56-.49-3.54-1.47c-.98-.98-1.47-2.15-1.47-3.53s.49-2.56,1.47-3.54c.98-.98,2.16-1.47,3.54-1.47.88,0,1.71.22,2.48.66.77.44,1.38,1.04,1.83,1.82.09.16.12.33.07.5-.05.18-.15.31-.31.41-.16.09-.33.12-.5.07-.18-.05-.31-.15-.41-.31-.33-.56-.78-1.01-1.35-1.33-.56-.32-1.17-.48-1.82-.48-1.01,0-1.88.36-2.59,1.08-.72.71-1.08,1.58-1.08,2.59s.36,1.87,1.08,2.59c.71.72,1.58,1.08,2.59,1.08s1.87-.36,2.59-1.08c.54-.54.88-1.18,1.02-1.92h-3.6Z"/><path class="cls-1" d="M14.71,58.84c1.11,0,2.05.39,2.83,1.17.78.78,1.17,1.72,1.17,2.83s-.39,2.04-1.17,2.82c-.78.79-1.72,1.18-2.83,1.18s-2.05-.39-2.83-1.18c-.78-.78-1.17-1.72-1.17-2.82s.39-2.05,1.17-2.83c.79-.78,1.73-1.17,2.83-1.17M12.82,60.95c-.52.52-.79,1.15-.79,1.89s.26,1.36.79,1.89c.52.52,1.15.78,1.89.78s1.37-.26,1.89-.78c.52-.52.79-1.15.79-1.89s-.26-1.37-.79-1.89c-.52-.52-1.15-.78-1.89-.78s-1.37.26-1.89.78"/><path class="cls-1" d="M21.44,66.17c0,.19-.07.35-.2.48-.13.13-.28.2-.47.2s-.34-.07-.47-.2-.2-.29-.2-.48v-8.67c0-.18.07-.34.2-.47s.29-.2.47-.2.34.07.47.2c.13.13.2.29.2.47v8.67Z"/><path class="cls-1" d="M29.52,57.5c0-.18.07-.34.2-.47.13-.13.28-.2.47-.2s.34.07.47.2.2.29.2.47v5.34c0,1.1-.39,2.04-1.17,2.83-.78.79-1.73,1.18-2.83,1.18s-2.05-.39-2.83-1.18c-.78-.78-1.17-1.72-1.17-2.83s.39-2.05,1.17-2.83c.79-.78,1.73-1.17,2.83-1.17,1.02,0,1.91.34,2.67,1.02v-2.36ZM28.74,64.73c.52-.52.79-1.15.79-1.89s-.26-1.37-.79-1.89c-.52-.52-1.15-.78-1.89-.78s-1.37.26-1.89.78c-.52.52-.79,1.15-.79,1.89s.26,1.36.79,1.89c.52.52,1.15.78,1.89.78s1.37-.26,1.89-.78"/><path class="cls-1" d="M33.94,66.17c0,.19-.07.35-.2.48-.13.13-.28.2-.47.2s-.34-.07-.47-.2c-.13-.13-.2-.29-.2-.48v-6.67c0-.19.07-.35.2-.48.13-.13.29-.19.47-.19s.34.06.47.19c.13.13.2.29.2.48v6.67ZM33.75,57.03c.13.13.2.29.2.48s-.07.35-.2.48c-.13.13-.29.2-.47.2s-.35-.07-.47-.2c-.13-.13-.19-.29-.19-.48s.06-.35.19-.48c.13-.13.29-.2.47-.2s.34.07.47.2"/><path class="cls-1" d="M43.7,66.17c0,.19-.07.35-.2.48-.13.13-.29.2-.47.2s-.34-.07-.47-.2c-.13-.13-.2-.29-.2-.48v-3.33c0-.74-.26-1.37-.79-1.89-.52-.52-1.15-.78-1.89-.78s-1.37.26-1.89.78c-.52.52-.79,1.15-.79,1.89v3.33c0,.19-.07.35-.2.48-.13.13-.28.2-.47.2s-.34-.07-.47-.2-.2-.29-.2-.48v-3.33c0-1.11.39-2.05,1.17-2.83.79-.78,1.73-1.17,2.83-1.17s2.05.39,2.83,1.17c.78.78,1.17,1.72,1.17,2.83v3.33Z"/><path class="cls-1" d="M46.87,57.55c0-.18.07-.34.2-.47.13-.13.29-.2.47-.2s.34.07.47.2c.13.13.2.29.2.47v8.01h4.65c.18,0,.34.06.47.19.13.13.2.29.2.47s-.07.34-.2.47c-.13.13-.29.2-.47.2h-5.31c-.18,0-.34-.06-.47-.19-.13-.13-.2-.29-.2-.48v-8.67Z"/><path class="cls-1" d="M55.96,66.22c0,.19-.07.35-.2.48-.13.13-.28.2-.47.2s-.34-.07-.47-.2c-.13-.13-.2-.29-.2-.48v-6.67c0-.19.07-.35.2-.48.13-.13.29-.19.47-.19s.34.06.47.19c.13.13.2.29.2.48v6.67ZM55.77,57.08c.13.13.2.29.2.48s-.07.35-.2.48c-.13.13-.29.2-.47.2s-.35-.07-.47-.2c-.13-.13-.19-.29-.19-.48s.06-.35.19-.48c.13-.13.29-.2.47-.2s.34.07.47.2"/><path class="cls-1" d="M65.72,66.22c0,.19-.07.35-.2.48-.13.13-.29.2-.47.2s-.34-.07-.47-.2c-.13-.13-.2-.29-.2-.48v-3.33c0-.74-.26-1.37-.79-1.89-.52-.52-1.15-.78-1.89-.78s-1.37.26-1.89.78c-.52.52-.79,1.15-.79,1.89v3.33c0,.19-.07.35-.2.48-.13.13-.28.2-.47.2s-.34-.07-.47-.2-.2-.29-.2-.48v-3.33c0-1.11.39-2.05,1.17-2.83.79-.78,1.73-1.17,2.83-1.17s2.05.39,2.83,1.17c.78.78,1.17,1.72,1.17,2.83v3.33Z"/><path class="cls-1" d="M73.39,64.79c.18.02.33.1.45.24.12.14.17.3.15.49-.02.18-.1.33-.24.45-.41.29-.85.52-1.34.68-.49.16-1.01.24-1.56.24-1.15,0-2.12-.39-2.9-1.18-.78-.78-1.17-1.72-1.17-2.82s.39-2.05,1.17-2.83c.78-.78,1.73-1.17,2.83-1.17s2.05.39,2.83,1.17c.78.78,1.17,1.73,1.17,2.83,0,.18-.07.34-.2.47-.13.13-.29.2-.47.2h-5.92c.12.47.36.87.7,1.22.52.52,1.17.78,1.96.78.41,0,.78-.05,1.11-.15.33-.1.64-.26.93-.46.15-.12.31-.17.49-.15M68.19,62.21h5.17c-.12-.47-.36-.87-.7-1.22-.52-.52-1.15-.78-1.89-.78s-1.37.26-1.89.78c-.35.35-.58.75-.7,1.22"/><path class="cls-1" d="M1.37,74.04v-3.41h2.18v.4h-1.75v1.06h1.52v.4h-1.52v1.55h-.43Z"/><path class="cls-1" d="M4.17,72.38c0-.57.14-1.01.43-1.33.29-.32.66-.48,1.11-.48.3,0,.57.08.81.23.24.15.42.36.55.63s.19.57.19.92-.07.66-.2.93-.32.48-.56.62-.5.21-.78.21c-.3,0-.58-.08-.82-.23-.24-.15-.42-.37-.54-.64-.12-.27-.19-.55-.19-.85ZM4.61,72.38c0,.41.1.73.31.97.21.24.47.36.79.36s.59-.12.79-.36c.21-.24.31-.58.31-1.02,0-.28-.04-.52-.13-.73s-.22-.37-.39-.48c-.17-.11-.36-.17-.58-.17-.3,0-.56.11-.78.33-.22.22-.33.59-.33,1.1Z"/><path class="cls-1" d="M9,74.04v-3.41h1.43c.29,0,.51.03.66.09.15.06.27.17.36.32.09.15.13.33.13.51,0,.24-.07.45-.22.61-.15.17-.38.27-.69.32.11.06.2.11.26.17.12.12.24.27.35.45l.56.93h-.54l-.43-.71c-.13-.2-.23-.36-.31-.47s-.15-.18-.22-.23c-.06-.04-.13-.07-.19-.09-.05-.01-.13-.02-.24-.02h-.5v1.51h-.43ZM9.43,72.13h.92c.2,0,.35-.02.46-.06.11-.04.19-.11.25-.2.06-.09.09-.2.09-.31,0-.16-.06-.29-.17-.4-.11-.1-.29-.16-.53-.16h-1.02v1.13Z"/><path class="cls-1" d="M15.45,74.04v-3.41h.64l.76,2.41c.07.22.12.39.15.5.04-.12.09-.31.17-.55l.77-2.37h.58v3.41h-.41v-2.85l-.94,2.85h-.39l-.93-2.9v2.9h-.41Z"/><path class="cls-1" d="M20.06,74.04v-3.41h2.34v.4h-1.91v1.04h1.79v.4h-1.79v1.16h1.98v.4h-2.41Z"/><path class="cls-1" d="M25.08,74.04v-3.01h-1.06v-.4h2.56v.4h-1.07v3.01h-.43Z"/><path class="cls-1" d="M27.89,74.04l1.24-3.41h.46l1.32,3.41h-.49l-.38-1.03h-1.35l-.35,1.03h-.45ZM28.82,72.64h1.09l-.34-.94c-.1-.29-.18-.52-.23-.71-.04.22-.1.44-.17.65l-.35,1Z"/><path class="cls-1" d="M32.54,74.04v-3.41h.43v3.01h1.59v.4h-2.02Z"/><path class="cls-1" d="M38.27,74.04v-3.41h.43v3.41h-.43Z"/><path class="cls-1" d="M40.16,74.04v-3.41h.44l1.7,2.68v-2.68h.41v3.41h-.44l-1.7-2.68v2.68h-.41Z"/><path class="cls-1" d="M44.66,74.04v-3.41h1.11c.25,0,.44.02.58.05.19.04.34.13.47.24.17.15.3.35.38.58s.13.51.13.81c0,.26-.03.49-.09.69s-.13.37-.22.5c-.09.13-.19.23-.29.31-.11.08-.23.13-.39.17s-.32.06-.52.06h-1.17ZM45.09,73.64h.69c.21,0,.38-.02.5-.06s.22-.1.29-.18c.1-.11.18-.25.24-.43.06-.18.08-.4.08-.66,0-.36-.06-.63-.17-.82-.11-.19-.25-.32-.4-.39-.11-.05-.3-.07-.55-.07h-.68v2.61Z"/><path class="cls-1" d="M51.35,70.63h.43v1.97c0,.34-.04.62-.11.82-.07.2-.21.37-.4.49-.19.13-.44.19-.75.19s-.55-.05-.74-.17c-.19-.11-.33-.27-.41-.48-.08-.21-.12-.49-.12-.85v-1.97h.43v1.97c0,.3.03.51.08.66s.14.25.27.32c.13.08.28.11.47.11.31,0,.54-.08.67-.23.13-.15.2-.44.2-.87v-1.97Z"/><path class="cls-1" d="M53.58,72.94l.4-.04c.02.17.06.31.13.42.07.11.18.2.32.26.15.07.31.1.5.1.16,0,.31-.03.43-.08s.22-.12.28-.21.09-.19.09-.29-.03-.2-.09-.28-.16-.15-.29-.2c-.09-.04-.28-.09-.58-.17-.3-.08-.5-.15-.62-.21-.15-.09-.27-.19-.34-.32-.08-.13-.11-.27-.11-.42,0-.17.05-.33.14-.48.09-.15.23-.26.41-.34.18-.08.38-.12.59-.12.24,0,.45.04.63.12.18.08.32.2.42.36.1.16.15.34.16.54l-.41.03c-.02-.22-.1-.38-.22-.49-.13-.11-.31-.17-.56-.17s-.45.05-.57.15-.18.22-.18.36c0,.12.04.22.13.3.08.08.3.16.64.24.35.08.59.16.72.22.19.09.33.21.42.35.09.14.13.3.13.49s-.05.35-.15.51-.24.29-.42.37-.39.13-.62.13c-.29,0-.54-.05-.73-.13-.2-.09-.35-.23-.46-.41-.11-.18-.17-.39-.18-.61Z"/><path class="cls-1" d="M58.23,74.04v-3.01h-1.06v-.4h2.56v.4h-1.07v3.01h-.43Z"/><path class="cls-1" d="M61.4,74.04v-3.41h1.43c.29,0,.51.03.66.09.15.06.27.17.36.32.09.15.13.33.13.51,0,.24-.07.45-.22.61-.15.17-.38.27-.69.32.11.06.2.11.26.17.12.12.24.27.35.45l.56.93h-.54l-.43-.71c-.13-.2-.23-.36-.31-.47s-.15-.18-.22-.23c-.06-.04-.13-.07-.19-.09-.05-.01-.13-.02-.24-.02h-.5v1.51h-.43ZM61.83,72.13h.92c.2,0,.35-.02.46-.06.11-.04.19-.11.25-.2.06-.09.09-.2.09-.31,0-.16-.06-.29-.17-.4-.11-.1-.29-.16-.53-.16h-1.02v1.13Z"/><path class="cls-1" d="M65.76,74.04v-3.41h.43v3.41h-.43Z"/><path class="cls-1" d="M67.87,74.04v-3.41h2.34v.4h-1.91v1.04h1.79v.4h-1.79v1.16h1.98v.4h-2.41Z"/><path class="cls-1" d="M71.92,72.94l.4-.04c.02.17.06.31.13.42.07.11.18.2.32.26.15.07.31.1.5.1.16,0,.31-.03.43-.08s.22-.12.28-.21.09-.19.09-.29-.03-.2-.09-.28-.16-.15-.29-.2c-.09-.04-.28-.09-.58-.17-.3-.08-.5-.15-.62-.21-.15-.09-.27-.19-.34-.32-.08-.13-.11-.27-.11-.42,0-.17.05-.33.14-.48.09-.15.23-.26.41-.34.18-.08.38-.12.59-.12.24,0,.45.04.63.12.18.08.32.2.42.36.1.16.15.34.16.54l-.41.03c-.02-.22-.1-.38-.22-.49-.13-.11-.31-.17-.56-.17s-.45.05-.57.15-.18.22-.18.36c0,.12.04.22.13.3.08.08.3.16.64.24.35.08.59.16.72.22.19.09.33.21.42.35.09.14.13.3.13.49s-.05.35-.15.51-.24.29-.42.37-.39.13-.62.13c-.29,0-.54-.05-.73-.13-.2-.09-.35-.23-.46-.41-.11-.18-.17-.39-.18-.61Z"/><path class="cls-1" d="M46.77,52.55l-.05-.96c-.21-3.89-.77-7.78-1.64-11.56-1.02-4.41-2.49-8.74-4.38-12.87l-.38-.83-.38.83c-1.93,4.23-3.43,8.67-4.44,13.19-.82,3.67-1.33,7.43-1.52,11.18l-.05.95.18-.15s0,.03,0,.05c.85-.58,2.94-1.84,5.9-1.96,2.65-.11,4.71.75,5.86,1.38.06.05.12.09.17.14l.74.62ZM44.03,49.9c-.8-.22-1.24-.3-1.89-.36l-.67-.05,3.63-4.07.21.47c.11.76.21,1.52.29,2.28l-.69-1.53-2.06,2.31c.41.06.81.15,1.36.3.42.12,1,.41,1.57.75.02.28.05.55.06.83-.62-.4-1.31-.79-1.81-.93ZM35.71,46.63l-.67,1.49c.09-.76.18-1.53.3-2.3l.18-.41,3.63,4.07-.67.05c-.65.05-1.09.14-1.89.36-.49.13-1.17.52-1.79.92.02-.27.04-.55.06-.82.56-.34,1.13-.62,1.55-.74.55-.15.95-.24,1.36-.3l-2.06-2.31ZM36.74,40.87l-.72,1.04c.09-.46.19-.93.29-1.38.03-.11.05-.23.08-.34l.39-.57,2.39,4.15-3.5-.02c.04-.22.08-.45.12-.67h2.22s-1.28-2.2-1.28-2.2ZM37.82,35.41l-.27.39c.12-.41.25-.82.39-1.22l1.75,2.65h-2.55c.05-.19.11-.37.16-.56h1.35l-.83-1.26ZM43.02,35.61l-.13-.19-.85,1.26h1.3c.05.19.11.37.16.56h-2.51l1.73-2.56c.1.31.2.62.3.93ZM44.26,40.22c.12.5.22,1.01.33,1.52l-.5-.87-1.52,2.2h2.28c.04.24.08.46.12.68l-3.66-.02,2.82-4.09c.05.19.09.38.14.57ZM40.3,28.43l1.87,4.87h-3.77l1.91-4.87ZM42.15,34.07l-1.91,2.82-1.87-2.82h3.78ZM40.3,43.64l-3.43-5.35h6.75l-3.33,5.35ZM40.31,49.52l-4.57-4.91h8.83l-4.26,4.91Z"/><polygon class="cls-1" points="40.3 29.97 39.21 32.75 41.36 32.75 40.3 29.97"/><polygon class="cls-1" points="41.1 34.63 39.41 34.63 40.24 35.89 41.1 34.63"/><polygon class="cls-1" points="37.27 45.28 40.29 48.52 43.1 45.28 37.27 45.28"/><polygon class="cls-1" points="40.3 42.6 42.63 38.85 37.89 38.85 40.3 42.6"/><path class="cls-1" d="M46.49,48.47s0,0,0,0c0-.04-.01-.08-.02-.12,0,.04.01.08.02.12"/><path class="cls-1" d="M59.14,9.23c-1.22-1.51-2.64-2.91-4.26-4.14-.19.16-.39.31-.58.48,1.65,1.05,3.28,2.26,4.84,3.66"/><path class="cls-1" d="M25.6,5.5c-.19-.15-.39-.31-.58-.45-1.75,1.33-3.36,2.92-4.75,4.76-.03.04-.06.08-.09.12,1.72-1.72,3.55-3.19,5.42-4.43"/><path class="cls-1" d="M47.97,12.23c-.24.31-.48.63-.73.96,2.19,2.76,4.26,6.12,6.02,10.22,2.3,5.37,3.83,11.45,4.59,18.23.31-.33.61-.66.9-1.01-.81-6.63-2.35-12.61-4.63-17.92-1.8-4.2-3.91-7.65-6.16-10.48"/><path class="cls-1" d="M27.98,7.57c-.31-.29-.62-.57-.93-.84-4.36,3.73-8.49,9.04-11.2,16.58-.2.56-.39,1.13-.58,1.71.01,1,.09,2,.22,2.99.37-1.4.78-2.76,1.26-4.08,2.7-7.5,6.85-12.72,11.23-16.35"/><path class="cls-1" d="M52.96,6.75c-.3.28-.61.57-.91.87,4.6,3.65,9.02,9,11.84,16.85.23.63.44,1.28.64,1.93.07-1.07.08-2.15,0-3.22-2.85-7.54-7.12-12.79-11.58-16.43"/><path class="cls-1" d="M50.49,9.23c-.27.29-.54.59-.81.9,3.37,3.35,6.56,7.84,8.93,13.85,1.46,3.71,2.52,7.75,3.18,12.13.28-.53.53-1.07.77-1.61-.69-4-1.71-7.73-3.07-11.18-2.39-6.09-5.61-10.66-9.01-14.1"/><path class="cls-1" d="M45.37,15.92c-.22.34-.44.7-.66,1.06,1.1,1.73,2.15,3.63,3.13,5.75,3,6.44,4.97,13.92,5.92,22.41.32-.21.63-.44.94-.67-.99-8.49-3-16-6.02-22.48-1.04-2.23-2.16-4.24-3.32-6.06"/><path class="cls-1" d="M42.76,20.39c-.21.39-.41.79-.62,1.2.05.11.11.21.16.31,3.63,7.19,6.08,15.7,7.34,25.47.32-.14.65-.28.96-.44-1.29-9.9-3.79-18.52-7.48-25.83-.12-.24-.25-.48-.37-.72"/><path class="cls-1" d="M35.6,16.97c-.22-.36-.45-.7-.67-1.05-1.04,1.67-2.03,3.49-2.97,5.5-3.14,6.74-5.18,14.59-6.13,23.5.31.22.63.43.95.63.91-8.89,2.92-16.7,6.03-23.38.88-1.89,1.82-3.62,2.79-5.2"/><path class="cls-1" d="M37.6,20.4c-.03.06-.06.11-.08.16-3.8,7.51-6.33,16.43-7.59,26.68.32.14.65.28.97.41,1.21-10.02,3.66-18.73,7.33-26.07-.21-.4-.41-.8-.63-1.19"/><path class="cls-1" d="M30.45,10.11c-.27-.3-.54-.6-.82-.88-3.2,3.37-6.21,7.78-8.49,13.56-1.54,3.92-2.65,8.2-3.33,12.84.25.51.53,1.02.82,1.52.64-4.98,1.77-9.55,3.4-13.7,2.24-5.71,5.24-10.04,8.42-13.34"/><path class="cls-1" d="M32.98,13.18c-.25-.32-.49-.64-.74-.95-2.09,2.73-4.05,6-5.73,9.93-2.42,5.64-4.01,12.05-4.77,19.19.3.32.6.64.92.95.71-7.26,2.29-13.75,4.72-19.44,1.64-3.84,3.56-7.03,5.6-9.69"/><path class="cls-1" d="M29.7,4.68c-.36.25-.72.52-1.07.79.35.24.71.5,1.07.77.36-.26.72-.52,1.07-.76-.36-.28-.72-.55-1.07-.81"/><path class="cls-1" d="M34.76,1.66c-.5.25-1,.51-1.51.79.49.2.99.43,1.52.68.51-.26,1.01-.5,1.5-.72-.52-.27-1.02-.52-1.51-.75"/><path class="cls-1" d="M33.2.98c-.69.2-1.38.42-2.05.68.32.1.64.22.99.35.61-.26,1.21-.5,1.81-.72-.25-.11-.5-.21-.74-.31"/><path class="cls-1" d="M32.27,3.01c-.42.25-.84.51-1.26.78.41.22.84.47,1.27.73.42-.26.84-.5,1.26-.73-.43-.28-.85-.53-1.26-.77"/><path class="cls-1" d="M45.37,1.36c.59.2,1.19.41,1.79.64.42-.18.82-.34,1.21-.48-.66-.24-1.32-.45-1.99-.63-.33.15-.66.3-1.01.47"/><path class="cls-1" d="M37.37,3.01c-.42.25-.84.52-1.26.8.42.22.84.46,1.27.71.42-.26.84-.51,1.26-.75-.43-.27-.85-.52-1.27-.76"/><path class="cls-1" d="M41.11,3.82c.42.22.84.45,1.27.7.42-.27.84-.52,1.25-.76-.43-.27-.85-.52-1.27-.75-.41.25-.83.52-1.25.81"/><path class="cls-1" d="M30.37,1.98c-.53.22-1.05.46-1.56.72.3.13.6.27.92.43.5-.25,1-.49,1.5-.71-.29-.15-.57-.3-.85-.44"/><path class="cls-1" d="M43.28,2.46c.49.21.99.43,1.5.67.51-.27,1.01-.51,1.5-.74-.51-.26-1.02-.51-1.51-.73-.48.25-.98.51-1.48.8"/><path class="cls-1" d="M48.35,2.49c.49.21.99.43,1.49.66.36-.19.71-.37,1.05-.54-.5-.25-1.01-.48-1.52-.69-.33.18-.67.37-1.01.57"/><path class="cls-1" d="M27.66,3.31c-.42.24-.83.5-1.24.76.25.14.5.29.75.45.42-.25.84-.49,1.26-.72-.26-.17-.51-.33-.77-.49"/><path class="cls-1" d="M46.22,3.84c.42.22.84.45,1.27.69.42-.27.84-.53,1.25-.77-.43-.26-.85-.51-1.27-.74-.41.26-.82.53-1.24.82"/><path class="cls-1" d="M40.37,1.38c.58.19,1.18.4,1.8.64.63-.27,1.23-.51,1.8-.71-.62-.27-1.23-.51-1.81-.73-.57.24-1.17.51-1.78.8"/><path class="cls-1" d="M45.07,6.25c.36-.28.71-.54,1.06-.79-.36-.27-.72-.52-1.08-.77-.35.26-.7.54-1.06.83.36.23.72.48,1.08.74"/><path class="cls-1" d="M42.65.37l1.9.73c.41-.14.79-.26,1.15-.37-1.54-.26-3.05-.35-3.05-.35-.11.04.12-.05,0,0"/><path class="cls-1" d="M38.28,2.47c.48.2.98.43,1.5.67.51-.26,1-.51,1.49-.73-.51-.27-1.01-.51-1.5-.74-.49.25-.98.51-1.49.8"/><path class="cls-1" d="M37.41,6.68c-.31.27-.62.55-.92.84.31.26.62.53.93.8.31-.28.62-.56.92-.82-.31-.29-.62-.56-.93-.83"/><path class="cls-1" d="M42.01,13.19c.25.31.49.62.73.95.24-.33.48-.65.72-.96-.24-.32-.49-.64-.73-.95-.24.31-.48.64-.72.97"/><path class="cls-1" d="M44.49,10.08c.28.28.55.56.82.86.27-.3.54-.6.81-.89-.27-.3-.55-.59-.82-.87-.27.29-.54.59-.81.9"/><path class="cls-1" d="M39.5,16.99c.22.35.45.7.67,1.06.22-.37.44-.73.66-1.08-.22-.36-.44-.71-.67-1.05-.22.35-.44.7-.66,1.07"/><path class="cls-1" d="M32.26,6.72c-.31.27-.62.55-.93.83.31.26.62.53.93.81.31-.28.62-.55.93-.81-.31-.29-.62-.57-.93-.84"/><path class="cls-1" d="M34.84,9.18c-.27.29-.54.59-.81.89.27.28.55.57.82.87.27-.3.54-.59.81-.88-.27-.3-.55-.59-.82-.88"/><path class="cls-1" d="M37.5,12.22c-.24.32-.48.64-.72.97.25.31.49.62.73.95.24-.33.48-.65.72-.96-.24-.32-.49-.64-.73-.95"/><path class="cls-1" d="M37.12.58c-.59.25-1.14.49-1.75.78.56.18,1.06.44,1.71.69.62-.26,1.27-.52,1.85-.74-.63-.27-1.24-.52-1.81-.73"/><path class="cls-1" d="M46.85,7.59c.31.25.63.51.94.78.31-.29.61-.57.92-.84-.31-.28-.63-.55-.94-.81-.3.28-.61.56-.92.86"/><path class="cls-1" d="M36.62.39c-.6.04-1.46,0-2.93.39.1.04.66.24.84.29.74-.27,1.37-.46,2.09-.67q-.08-.03,0,0"/><path class="cls-1" d="M39.26,10.07c.27.28.55.57.82.86.27-.3.54-.6.81-.88-.27-.3-.55-.59-.82-.87-.27.29-.54.59-.81.89"/><path class="cls-1" d="M50.23,6.26c.36-.28.71-.55,1.06-.81-.36-.26-.72-.51-1.09-.76-.35.27-.7.55-1.06.84.36.23.72.47,1.08.73"/><path class="cls-1" d="M34.85,4.67c-.36.26-.71.53-1.07.8.36.24.71.49,1.08.76.36-.27.72-.52,1.07-.77-.36-.28-.72-.54-1.08-.8"/><path class="cls-1" d="M41.69,7.53c.31.26.62.52.94.79.31-.29.62-.56.92-.83-.31-.28-.63-.55-.94-.82-.31.27-.61.56-.92.85"/><path class="cls-1" d="M51.33,3.87c.42.22.84.44,1.26.68.27-.18.54-.35.8-.51-.4-.26-.8-.51-1.21-.74-.28.18-.56.38-.85.58"/><path class="cls-1" d="M38.44.05s-.74.29-.73.29l1.99.73c.78-.27,1.3-.47,1.99-.66-.35-.12-.69-.24-1.02-.35-.93-.08-1.45-.06-2.23-.01"/><path class="cls-1" d="M39.96,6.2c.36-.27.71-.53,1.07-.78-.36-.27-.72-.53-1.08-.78-.36.26-.71.53-1.07.82.36.24.72.49,1.08.75"/><polyline class="cls-1" points="40.21 25.77 40.21 25.77 40.21 25.77 40.21 25.77"/></svg>