<?xml version="1.0" encoding="UTF-8"?>
<svg id="Layer_1" data-name="Layer 1" xmlns="http://www.w3.org/2000/svg" xmlns:xlink="http://www.w3.org/1999/xlink" viewBox="0 0 123.7 57.2">
  <defs>
    <style>
      .cls-1 {
        fill: url(#radial-gradient);
      }
    </style>
    <radialGradient id="radial-gradient" cx="61.85" cy="28.6" fx="61.85" fy="28.6" r="128.99" gradientUnits="userSpaceOnUse">
      <stop offset="0" stop-color="#fff"/>
      <stop offset=".13" stop-color="#f6f2e9"/>
      <stop offset=".41" stop-color="#e0d2b2"/>
      <stop offset=".8" stop-color="#bc9f59"/>
      <stop offset="1" stop-color="#aa852b"/>
    </radialGradient>
  </defs>
  <path class="cls-1" d="M29.4,27.1c-3.1,0-6.5-3.1-6.5-9.2s3.4-9.2,6.5-9.2,6.5,3.1,6.5,9.2-3.4,9.2-6.5,9.2M56.5,26.4V9.4h2.5c4,0,7.1,2.8,7.1,8.5s-3.1,8.5-7.1,8.5h-2.5ZM54.1,27.8h4.9c5.5,0,9.7-3.8,9.7-9.9s-4.1-9.9-9.7-9.9h-4.9s0,19.8,0,19.8ZM70.6,27.8h11.7v-1.4h-9.2v-8.1h5.8l.3-1.4h-6.1v-7.5h8.6l.3-1.4h-11.4s0,19.8,0,19.8ZM112.9,49.4h10.8v-1.4h-8.3v-8.1h4.9l.3-1.4h-5.2v-7.5h7.7l.3-1.4h-10.4v19.8h-.1ZM93.6,49.4h2.5v-19.8h-2.5v19.8ZM109.4,29.6h-.9v14.8l-11.3-17.8V8h-2.5v14.8L80.3,0h-1.8l5.8,9.1v18.6h2.5v-14.8c3.8,6,7.6,11.9,11.3,17.8v18.6h2.5v-14.8c4.8,7.6,9.6,15.2,14.4,22.7h1.8c-1.9-3-3.9-6.1-5.8-9.1v-18.6h-1.5l-.1.1ZM9.1,28.3c6.3,0,9.3-6,9-11.1h-9v1.6h6.4c-.3,5.5-3.5,8.3-6.4,8.3s-6.5-3.1-6.5-9.2,3.4-9.2,6.5-9.2,5.3,2.1,6.2,6.3l2.2-1.4c-1.4-3.9-4.8-6.2-8.3-6.2S0,11.4,0,17.9s4.3,10.5,9.1,10.5v-.1ZM40.4,27.8h11.4l.3-1.4h-9.3V8h-2.5v19.8h.1ZM79.8,49.4h11.4l.3-1.4h-9.3v-18.4h-2.5v19.8h.1ZM29.4,28.3c4.8,0,9.1-4,9.1-10.5s-4.3-10.5-9.1-10.5-9.1,4-9.1,10.5,4.3,10.5,9.1,10.5Z"/>
</svg>