<?xml version="1.0" encoding="UTF-8"?><svg id="Layer_1" xmlns="http://www.w3.org/2000/svg" xmlns:xlink="http://www.w3.org/1999/xlink" viewBox="0 0 1920 900"><defs><style>.cls-1,.cls-2,.cls-3{fill:none;}.cls-2{stroke:#4e5253;}.cls-2,.cls-3{stroke-miterlimit:10;}.cls-4{clip-path:url(#clippath-4);}.cls-5{clip-path:url(#clippath-5);}.cls-3{stroke:#7d8081;stroke-width:4px;}</style><clipPath id="clippath-4"><rect class="cls-1" x="-1.25" y="-6050.04" width="1920" height="8950.34"/></clipPath><clipPath id="clippath-5"><rect class="cls-1" x="-1.25" y="-6050.04" width="1920" height="8950.34"/></clipPath></defs><g class="cls-4"><path class="cls-2" d="M2233.58,1142l-269.93,55.73,96.71-79.22-96.71,79.22-145.31,30.01,5.58-1.15,139.74-28.85-134.65,110.29-199.66,163.55-92.76-185.66,281.76-58.18-97.3,20.09-184.46,38.09-18.38-36.78,320.16-586.8-89.94,164.84-230.22,421.96L985.7,183.33l927.88,186.56-340.19-68.4-201.44-40.5-386.25-77.66-209.3-418.91,1483.6-656.92L776.4-235.58-141.48-2072.69,776.4-235.58,258.35-6.19l-50.3,22.27,568.34-251.66,209.3,418.91L191.13,23.57l1.43-.63,15.5-6.86-16.93,7.5-497.01-99.93L191.13,23.57l-497.01,220.07L191.13,23.57l794.57,159.75,532.51,1065.81-24.95,45.72L227.49,1556.22l-158.22,32.67-281.2,58.06,1705.19-352.09-284.28,521.04L-156.7,2980.58l1365.68-1164.68L-61.47,3712.19l1270.45-1896.29,314.43-257.56-78.1,63.97-236.34,193.59,284.28-521.04,43.32-8.94,92.76,185.66-99.92,81.85,99.92-81.85,192.1,384.48-14.55-29.13-177.54-355.35,334.31-273.84,269.93-55.73ZM1493.26,1294.86l24.95-45.72,18.38,36.78-43.32,8.94Z"/><polygon class="cls-2" points="1954.68 449.15 1838.36 662.34 1843.42 653.07 1954.68 449.15"/></g><line class="cls-3" x1="258.35" y1="-6.19" x2="208.06" y2="16.08"/><g class="cls-5"><line class="cls-3" x1="1582.73" y1="303.37" x2="1913.57" y2="369.88"/></g><rect class="cls-1" x="-1.25" y="-6050.04" width="1920" height="8950.34"/><rect class="cls-1" x="-1.25" y="-6050.04" width="1920" height="8950.34"/><rect class="cls-1" x="-1.25" y="-6050.04" width="1920" height="8950.34"/><rect class="cls-1" x="-1.25" y="-6050.04" width="1920" height="8950.34"/><rect class="cls-1" x="-1.25" y="-6050.04" width="1920" height="8950.34"/><rect class="cls-1" x="-1.25" y="-6050.04" width="1920" height="8950.34"/><rect class="cls-1" x="-1.25" y="-6050.04" width="1920" height="8950.34"/><rect class="cls-1" x="-1.25" y="-6050.04" width="1920" height="8950.34"/><rect class="cls-1" x="-1.25" y="-6050.04" width="1920" height="8950.34"/><rect class="cls-1" x="-1.25" y="-6050.04" width="1920" height="8950.34"/><rect class="cls-1" x="-1.25" y="-6050.04" width="1920" height="8950.34"/><rect class="cls-1" x="-1.25" y="-6050.04" width="1920" height="8950.34"/><rect class="cls-1" x="-1.25" y="-6050.04" width="1920" height="8950.34"/><rect class="cls-1" x="-1.25" y="-6050.04" width="1920" height="8950.34"/></svg>