<?xml version="1.0" encoding="UTF-8"?><svg id="Layer_1" xmlns="http://www.w3.org/2000/svg" xmlns:xlink="http://www.w3.org/1999/xlink" viewBox="0 0 1920 900"><defs><style>.cls-1,.cls-2,.cls-3{fill:none;}.cls-2{stroke:#4e5253;}.cls-2,.cls-3{stroke-miterlimit:10;}.cls-4{clip-path:url(#clippath-1);}.cls-3{stroke:#7d8081;stroke-width:4px;}</style><clipPath id="clippath-1"><rect class="cls-1" x=".52" y="-2149.87" width="1920" height="8950.34"/></clipPath></defs><g class="cls-4"><path class="cls-2" d="M2235.35,663.05l-269.93,55.73,96.71-79.22-96.71,79.22-145.31,30.01,5.58-1.15,139.74-28.85-134.65,110.29-199.66,163.55-92.76-185.66,281.76-58.18-97.3,20.09-184.46,38.09-18.38-36.78,320.16-586.8-89.94,164.84-230.22,421.96L987.47-295.62l927.88,186.56-340.19-68.4-201.44-40.5-386.25-77.66-209.3-418.91,1483.6-656.92L778.17-714.53-139.7-2551.64,778.17-714.53l-518.05,229.39-50.3,22.27,568.34-251.66,209.3,418.91L192.91-455.37l1.43-.63,15.5-6.86-16.93,7.5-497.01-99.93,497.01,99.93-497.01,220.07,497.01-220.07,794.57,159.75,532.51,1065.81-24.95,45.72L229.27,1077.27l-158.22,32.67-281.2,58.06,1705.19-352.09-284.28,521.04L-154.92,2501.63l1365.68-1164.68L-59.7,3233.25l1270.45-1896.29,314.43-257.56-78.1,63.97-236.34,193.59,284.28-521.04,43.32-8.94,92.76,185.66-99.92,81.85,99.92-81.85,192.1,384.48-14.55-29.13-177.54-355.35,334.31-273.84,269.93-55.73ZM1495.03,815.91l24.95-45.72,18.38,36.78-43.32,8.94Z"/><polygon class="cls-2" points="1956.45 -29.8 1840.14 183.39 1845.19 174.12 1956.45 -29.8"/></g><line class="cls-3" x1="1538.36" y1="806.96" x2="1820.11" y2="748.79"/><rect class="cls-1" x=".52" y="-2149.87" width="1920" height="8950.34"/><rect class="cls-1" x=".52" y="-2149.87" width="1920" height="8950.34"/><rect class="cls-1" x=".52" y="-2149.87" width="1920" height="8950.34"/><rect class="cls-1" x=".52" y="-2149.87" width="1920" height="8950.34"/><rect class="cls-1" x=".52" y="-2149.87" width="1920" height="8950.34"/><rect class="cls-1" x=".52" y="-2149.87" width="1920" height="8950.34"/><rect class="cls-1" x=".52" y="-2149.87" width="1920" height="8950.34"/><rect class="cls-1" x=".52" y="-2149.87" width="1920" height="8950.34"/><rect class="cls-1" x=".52" y="-2149.87" width="1920" height="8950.34"/><rect class="cls-1" x=".52" y="-2149.87" width="1920" height="8950.34"/><rect class="cls-1" x=".52" y="-2149.87" width="1920" height="8950.34"/><rect class="cls-1" x=".52" y="-2149.87" width="1920" height="8950.34"/><rect class="cls-1" x=".52" y="-2149.87" width="1920" height="8950.34"/><rect class="cls-1" x=".52" y="-2149.87" width="1920" height="8950.34"/></svg>